<svg width="240" height="54" viewBox="0 0 240 54" fill="none" xmlns="http://www.w3.org/2000/svg">
<path d="M142.474 8.67704V10.2682C142.474 11.0637 143.279 11.8593 144.084 11.8593H146.499L140.864 18.2238H137.644V0.721436H129.595V2.31256C129.595 3.0747 130.417 3.90368 131.205 3.90368H134.425V30.9527H129.595V34.135H142.474V30.9527H137.644V21.406H139.254C140.441 21.406 140.9 21.5166 141.493 22.4458L146.785 31.2948C147.973 33.2981 148.806 34.135 151.328 34.135H153.743V30.9527H152.133C150.749 30.9527 150.445 30.8056 149.902 29.975L144.956 21.7608C143.966 20.0496 143.274 19.8054 143.224 19.8054L150.523 11.8593H153.743V8.67704H142.474Z" fill="#55BB06"/>
<path d="M174.672 26.1794C173.942 26.1794 173.062 26.9996 173.062 27.7705V30.9528H160.183L176.282 11.8593V8.67705H156.158V16.6327H157.768C158.573 16.6327 159.378 15.8037 159.378 15.0415V11.8593H171.452L155.353 30.9528V34.135H176.282V26.1794H174.672Z" fill="#55BB06"/>
<path d="M123.156 31.7483V34.135H127.18V30.1572H124.765C123.985 30.1572 123.156 30.9528 123.156 31.7483Z" fill="#55BB06"/>
<path d="M49.9065 4.69875V2.31206C49.9065 1.5165 50.7364 0.720947 51.5164 0.720947H53.9312V4.69875H49.9065Z" fill="#202123"/>
<path d="M88.5435 2.31211V8.6766H97.3978C97.3978 8.6766 96.4416 9.59546 95.4104 10.8922C94.8132 11.6417 94.269 11.8588 93.3731 11.8588H88.5435V24.5878C88.5435 29.7924 91.6111 30.9523 93.3731 30.9523C95.1351 30.9523 95.7879 30.1567 95.7879 30.1567V33.339C95.7879 33.339 95.2535 34.1345 93.3731 34.1345C91.492 34.1345 85.3238 33.0749 85.3238 24.5878V11.8588H82.104C81.2991 11.8588 80.4941 11.0466 80.4941 10.2677V8.6766H85.3238V2.31211H88.5435Z" fill="#202123"/>
<path fill-rule="evenodd" clip-rule="evenodd" d="M19.3188 17.4277C19.3188 10.8222 15.9871 8.67656 10.4644 8.67656C4.94176 8.67656 1.18592 11.6647 1.18592 11.6647L2.69277 13.5343C2.99784 13.9129 3.53392 14.0164 3.95732 13.7737C5.18083 13.0704 8.12046 11.8588 10.4644 11.8588C13.8959 11.8588 16.099 12.8326 16.099 17.4277V18.2233H14.4891C9.53152 18.2233 0.000244141 19.0061 0.000244141 26.9745C0.000244141 32.0104 4.37187 34.9301 8.04963 34.9301C12.5921 34.9301 14.1238 33.15 15.3655 31.707C15.578 31.46 15.782 31.223 15.9912 31.0064C15.9912 32.6922 17.2106 34.1345 19.3188 34.1345H23.3435V30.9523H20.1237C19.5771 30.9523 19.3188 30.6969 19.3188 30.1567V17.4277ZM16.099 22.2011C16.099 26.5035 13.0008 31.7478 8.04963 31.7478C4.61737 31.7478 3.22 29.5163 3.22 26.9745C3.22 21.9266 12.4792 21.4055 14.4891 21.4055H16.099V22.2011Z" fill="#202123"/>
<path fill-rule="evenodd" clip-rule="evenodd" d="M70.03 8.67656C75.5526 8.67656 78.8843 10.8222 78.8843 17.4277V30.1567C78.8843 30.6969 79.1427 30.9523 79.6892 30.9523H82.909V34.1345H78.8843C76.7762 34.1345 75.5567 32.6922 75.5567 31.0064C75.3475 31.223 75.1435 31.46 74.931 31.707C73.6894 33.15 72.1576 34.9301 67.6152 34.9301C63.9374 34.9301 59.5658 32.0104 59.5658 26.9745C59.5658 19.0061 69.097 18.2233 74.0547 18.2233H75.6645V17.4277C75.6645 12.8326 73.4614 11.8588 70.03 11.8588C67.686 11.8588 64.7463 13.0704 63.5228 13.7737C63.0995 14.0164 62.5634 13.9129 62.2583 13.5343L60.7514 11.6647C60.7514 11.6647 64.5073 8.67656 70.03 8.67656ZM67.6152 31.7478C72.5663 31.7478 75.6645 26.5035 75.6645 22.2011V21.4055H74.0547C72.0447 21.4055 62.7855 21.9266 62.7855 26.9745C62.7855 29.5163 64.1829 31.7478 67.6152 31.7478Z" fill="#202123"/>
<path fill-rule="evenodd" clip-rule="evenodd" d="M107.862 8.67656C113.385 8.67656 116.716 10.8222 116.716 17.4277V30.1567C116.716 30.6969 116.975 30.9523 117.521 30.9523H120.741V34.1345H116.716C114.607 34.1345 113.389 32.6922 113.389 31.0064C113.18 31.223 112.976 31.46 112.763 31.707C111.521 33.15 109.99 34.9301 105.447 34.9301C101.769 34.9301 97.3978 32.0104 97.3978 26.9745C97.3978 19.0061 106.929 18.2233 111.887 18.2233H113.497V17.4277C113.497 12.8326 111.293 11.8588 107.862 11.8588C105.518 11.8588 102.578 13.0704 101.355 13.7737C100.931 14.0164 100.395 13.9129 100.09 13.5343L98.5835 11.6647C98.5835 11.6647 102.339 8.67656 107.862 8.67656ZM105.447 31.7478C110.398 31.7478 113.497 26.5035 113.497 22.2011V21.4055H111.887C109.877 21.4055 100.618 21.9266 100.618 26.9745C100.618 29.5163 102.015 31.7478 105.447 31.7478Z" fill="#202123"/>
<path d="M53.9311 30.9523V8.67656H37.0274V11.8588H41.0521L34.6126 29.3611L28.1731 11.8588H31.3928V8.67656H19.3187C19.3187 8.67656 20.0102 9.59544 21.0421 10.8922C21.6386 11.6416 22.4483 11.8588 23.3434 11.8588H24.9533L33.0027 34.1345H36.2224L44.2718 11.8588H50.7113V30.9523H48.2965C47.4916 30.9523 46.6866 31.7812 46.6866 32.5434V34.1345H58.7607V30.9523H53.9311Z" fill="#202123"/>
<path d="M5.10009 49.8806C4.57285 50.2004 3.94741 50.3595 3.21734 50.3595C2.25383 50.3595 1.47626 50.0325 0.886236 49.3794C0.295412 48.7254 0 47.8694 0 46.8113C0 45.6975 0.330829 44.7866 0.996513 44.0777C1.65978 43.3705 2.51302 43.0157 3.55702 43.0157C4.09552 43.0157 4.61954 43.1255 5.12745 43.3426V44.0547C4.61954 43.7444 4.06172 43.5901 3.45962 43.5901C2.62812 43.5901 1.95519 43.8836 1.43762 44.4747C0.920044 45.065 0.662464 45.8311 0.662464 46.7691C0.662464 47.6768 0.89831 48.4056 1.37161 48.9585C1.84331 49.509 2.46955 49.7851 3.2447 49.7851C3.95305 49.7851 4.57205 49.5981 5.09848 49.225V49.8806H5.10009ZM6.95386 46.7158C6.95386 47.6769 7.17843 48.4295 7.6292 48.9728C8.07835 49.5146 8.69413 49.7859 9.47814 49.7859C10.2718 49.7859 11.047 49.4963 11.8052 48.9171V49.587C11.0711 50.1025 10.2509 50.3595 9.34855 50.3595C8.43494 50.3595 7.69521 50.0373 7.13336 49.3881C6.57151 48.7413 6.28978 47.8256 6.28978 46.645C6.28978 45.6251 6.58278 44.7635 7.17119 44.0634C7.7596 43.3649 8.52429 43.0149 9.46446 43.0149C10.3459 43.0149 11.0236 43.3212 11.4937 43.9306C11.9638 44.5423 12.1996 45.3753 12.1996 46.435V46.715L6.95386 46.7158ZM11.5331 46.1414C11.5074 45.3339 11.311 44.7054 10.9447 44.2599C10.5809 43.8136 10.0778 43.5901 9.4379 43.5901C8.77221 43.5901 8.22405 43.8096 7.78697 44.2504C7.34989 44.6895 7.08265 45.3196 6.98123 46.1414H11.5331ZM14.6209 48.945H14.5927V53.4105H13.9552V43.1859H14.5927V44.6283H14.6209C14.8736 44.1127 15.2367 43.7158 15.7092 43.4349C16.1817 43.1549 16.7033 43.0149 17.2707 43.0149C18.1707 43.0149 18.8718 43.3212 19.3781 43.9353C19.8836 44.5463 20.1363 45.3801 20.1363 46.4358C20.1363 47.6076 19.8457 48.5536 19.267 49.2767C18.6882 49.9983 17.9227 50.3603 16.9737 50.3603C15.9128 50.3595 15.128 49.8885 14.6209 48.945ZM14.5919 46.3395V47.2218C14.5919 47.9227 14.8165 48.5273 15.2624 49.0293C15.7116 49.5329 16.3 49.7859 17.0268 49.7859C17.7521 49.7859 18.3405 49.4796 18.7921 48.8662C19.2453 48.2528 19.4698 47.4469 19.4698 46.4477C19.4698 45.5726 19.2638 44.8789 18.8484 44.3633C18.4331 43.847 17.8801 43.5909 17.1878 43.5909C16.3612 43.5909 15.7237 43.8637 15.2697 44.4103C14.8189 44.9576 14.5919 45.5996 14.5919 46.3395ZM26.9099 48.186C26.9099 48.4828 26.8576 48.7509 26.7537 48.9959C26.6499 49.2393 26.5034 49.451 26.3142 49.6284C26.1226 49.8058 25.8989 49.9434 25.6389 50.0421C25.3789 50.1399 25.0931 50.1892 24.784 50.1892H21.8903V43.1859H24.5828C24.9394 43.1859 25.2437 43.2297 25.4988 43.3164C25.7564 43.4023 25.9665 43.5216 26.1323 43.6712C26.2997 43.8208 26.4229 44.0006 26.5034 44.2058C26.5831 44.4087 26.6233 44.6307 26.6233 44.8693C26.6233 45.0817 26.5927 45.2822 26.5316 45.4668C26.4672 45.6506 26.3802 45.8168 26.2691 45.9664C26.1556 46.1136 26.0164 46.2393 25.8538 46.3395C25.688 46.4406 25.5061 46.5098 25.3032 46.5503C25.5656 46.5782 25.7966 46.6394 25.9979 46.7317C26.1991 46.8256 26.3665 46.9441 26.501 47.0865C26.633 47.2313 26.7344 47.3968 26.806 47.5838C26.8745 47.7707 26.9099 47.972 26.9099 48.186ZM25.9609 44.9648C25.9609 44.8041 25.9375 44.6521 25.8876 44.505C25.8401 44.3602 25.758 44.2321 25.6413 44.1223C25.5286 44.0125 25.3765 43.9266 25.1929 43.8605C25.0086 43.7929 24.7776 43.7603 24.5007 43.7603H22.5286V46.2974H24.3284C24.6424 46.2974 24.9024 46.26 25.1133 46.186C25.3233 46.1088 25.4908 46.0086 25.6163 45.8845C25.7395 45.7588 25.8288 45.6163 25.8804 45.4572C25.9343 45.2965 25.9609 45.1326 25.9609 44.9648ZM26.2442 48.2401C26.2442 48.0532 26.2136 47.8757 26.1524 47.7103C26.0888 47.5448 25.9874 47.4 25.8474 47.2759C25.7057 47.1526 25.5189 47.0539 25.2855 46.9815C25.0537 46.9091 24.7655 46.8717 24.4258 46.8717H22.5294V49.6148H24.6528C24.9177 49.6148 25.1463 49.5814 25.3451 49.5138C25.5431 49.4486 25.7113 49.3555 25.8433 49.2338C25.9786 49.1152 26.0768 48.9704 26.1452 48.7994C26.2104 48.6323 26.2442 48.4454 26.2442 48.2401ZM33.5804 50.1892V44.3339C33.5426 44.3856 33.5071 44.4349 33.4717 44.4859C33.4387 44.5352 33.4081 44.575 33.3872 44.6004L29.1307 50.1892H28.6799V43.1859H29.3174V48.9848C29.3456 48.9354 29.3714 48.8861 29.4004 48.8423C29.4285 48.7962 29.4591 48.7556 29.4905 48.719L33.7116 43.1867H34.2235V50.19L33.5804 50.1892ZM41.0752 49.8806C40.5487 50.2004 39.9225 50.3595 39.1924 50.3595C38.2289 50.3595 37.4521 50.0325 36.8613 49.3794C36.2705 48.7254 35.9751 47.8694 35.9751 46.8113C35.9751 45.6975 36.3059 44.7866 36.9724 44.0777C37.6357 43.3705 38.4881 43.0157 39.5329 43.0157C40.0714 43.0157 40.5954 43.1255 41.1033 43.3426V44.0547C40.5954 43.7444 40.0376 43.5901 39.4355 43.5901C38.604 43.5901 37.9311 43.8836 37.4143 44.4747C36.8967 45.065 36.6392 45.8311 36.6392 46.7691C36.6392 47.6768 36.8758 48.4056 37.3483 48.9585C37.82 49.509 38.4462 49.7851 39.2214 49.7851C39.9297 49.7851 40.5487 49.5981 41.076 49.225L41.0752 49.8806ZM51.4766 50.1892V43.7603H47.2965V50.1892H46.659V43.1859H52.1125V50.1892H51.4766ZM57.2279 50.3595C56.1935 50.3595 55.3765 50.0238 54.7736 49.3515C54.1715 48.6793 53.8713 47.8057 53.8713 46.7293C53.8713 45.567 54.1852 44.6561 54.8163 44.0006C55.4441 43.3418 56.2732 43.0149 57.3035 43.0149C58.3145 43.0149 59.1106 43.3395 59.6966 43.9934C60.2842 44.645 60.5772 45.5479 60.5772 46.7015C60.5772 47.7914 60.2778 48.6737 59.6797 49.3483C59.0824 50.0238 58.2646 50.3595 57.2279 50.3595ZM57.2753 43.5901C56.4414 43.5901 55.7749 43.8677 55.2791 44.423C54.7833 44.9807 54.5353 45.754 54.5353 46.7413C54.5353 47.6586 54.776 48.3937 55.263 48.9513C55.7476 49.5074 56.4084 49.7851 57.2472 49.7851C58.102 49.7851 58.7588 49.5114 59.2193 48.9657C59.6821 48.4167 59.9115 47.6578 59.9115 46.6872C59.9115 45.6887 59.6821 44.9226 59.2241 44.3904C58.7629 43.8558 58.1165 43.5901 57.2753 43.5901ZM66.3261 50.1892L62.9985 46.7556H62.9703V50.1892H62.3328V43.1859H62.9703V46.5305H62.9985L66.2834 43.1859H67.1077L63.6762 46.606L67.2187 50.1892H66.3261ZM70.2284 51.6181C69.9708 52.2481 69.6827 52.7151 69.3711 53.0206C69.0572 53.3261 68.6531 53.4781 68.1597 53.4781C67.9512 53.4781 67.7677 53.4471 67.6067 53.3818V52.7541C67.7717 52.817 67.9649 52.8496 68.1879 52.8496C68.7546 52.8496 69.2013 52.4622 69.5297 51.6873L70.1865 50.1343L67.5037 43.1851H68.2145L70.3548 48.8877C70.3998 49.0118 70.4329 49.1049 70.4522 49.1677C70.4683 49.256 70.49 49.334 70.5134 49.4008H70.5415L70.7065 48.9291L72.9901 43.1843H73.6824L70.2284 51.6181ZM79.7379 50.1892V43.7603H75.5579V50.1892H74.9204V43.1859H80.3738V50.1892H79.7379ZM86.6371 50.1892L83.3094 46.7556H83.2805V50.1892H82.643V43.1859H83.2805V46.5305H83.3094L86.5944 43.1859H87.4187L83.9872 46.606L87.5297 50.1892H86.6371ZM93.7084 50.1892V44.3339C93.6706 44.3856 93.6352 44.4349 93.5998 44.4859C93.5668 44.5352 93.5362 44.575 93.5153 44.6004L89.2587 50.1892H88.808V43.1859H89.4455V48.9848C89.4737 48.9354 89.4994 48.8861 89.5284 48.8423C89.5566 48.7962 89.5872 48.7556 89.6186 48.719L93.8396 43.1867H94.3524V50.19L93.7084 50.1892ZM104.732 50.1892V48.7859H104.706C104.48 49.2648 104.152 49.6475 103.719 49.9323C103.289 50.2171 102.81 50.3595 102.283 50.3595C101.61 50.3595 101.078 50.1733 100.686 49.7994C100.294 49.4255 100.098 48.9545 100.098 48.3849C100.098 47.1613 100.916 46.4238 102.555 46.1669L104.732 45.8471C104.732 44.3411 104.161 43.5901 103.018 43.5901C102.238 43.5901 101.479 43.9003 100.74 44.5193V43.7603C101.003 43.5543 101.359 43.38 101.81 43.2329C102.258 43.0881 102.681 43.0157 103.079 43.0157C103.808 43.0157 104.373 43.2376 104.771 43.6855C105.168 44.1318 105.37 44.7834 105.37 45.6354V50.19L104.732 50.1892ZM102.781 46.7015C102.04 46.8065 101.517 46.9768 101.218 47.2099C100.918 47.4453 100.769 47.8256 100.769 48.3563C100.769 48.7715 100.909 49.1128 101.187 49.3809C101.466 49.6522 101.856 49.7851 102.354 49.7851C103.037 49.7851 103.604 49.5353 104.054 49.0357C104.507 48.5369 104.732 47.894 104.732 47.1048V46.4207L102.781 46.7015ZM112.519 48.186C112.519 48.4828 112.468 48.7509 112.363 48.9959C112.259 49.2393 112.113 49.451 111.923 49.6284C111.732 49.8058 111.508 49.9434 111.248 50.0421C110.988 50.1399 110.702 50.1892 110.393 50.1892H107.499V43.1859H110.192C110.548 43.1859 110.853 43.2297 111.108 43.3164C111.366 43.4023 111.576 43.5216 111.741 43.6712C111.909 43.8208 112.032 44.0006 112.112 44.2058C112.192 44.4087 112.232 44.6307 112.232 44.8693C112.232 45.0817 112.202 45.2822 112.141 45.4668C112.076 45.6506 111.989 45.8168 111.878 45.9664C111.765 46.1136 111.626 46.2393 111.463 46.3395C111.297 46.4406 111.115 46.5098 110.912 46.5503C111.175 46.5782 111.406 46.6394 111.607 46.7317C111.808 46.8256 111.976 46.9441 112.11 47.0865C112.243 47.2313 112.344 47.3968 112.415 47.5838C112.484 47.7707 112.519 47.972 112.519 48.186ZM111.57 44.9648C111.57 44.8041 111.547 44.6521 111.497 44.505C111.449 44.3602 111.367 44.2321 111.251 44.1223C111.138 44.0125 110.986 43.9266 110.803 43.8605C110.619 43.7929 110.388 43.7603 110.111 43.7603H108.139V46.2974H109.938C110.253 46.2974 110.512 46.26 110.723 46.186C110.933 46.1088 111.101 46.0086 111.226 45.8845C111.349 45.7588 111.439 45.6163 111.49 45.4572C111.544 45.2965 111.57 45.1326 111.57 44.9648ZM111.853 48.2401C111.853 48.0532 111.822 47.8757 111.761 47.7103C111.697 47.5448 111.596 47.4 111.456 47.2759C111.314 47.1526 111.127 47.0539 110.894 46.9815C110.662 46.9091 110.374 46.8717 110.034 46.8717H108.138V49.6148H110.261C110.526 49.6148 110.755 49.5814 110.953 49.5138C111.151 49.4486 111.32 49.3555 111.452 49.2338C111.586 49.1152 111.685 48.9704 111.754 48.7994C111.82 48.6323 111.853 48.4454 111.853 48.2401ZM119.19 50.1892V44.3339C119.152 44.3856 119.116 44.4349 119.081 44.4859C119.048 44.5352 119.017 44.575 118.996 44.6004L114.74 50.1892H114.288V43.1859H114.927V48.9848C114.955 48.9354 114.981 48.8861 115.009 48.8423C115.037 48.7962 115.067 48.7556 115.099 48.719L119.32 43.1867H119.833V50.19L119.19 50.1892ZM126.33 50.1892V48.7859H126.304C126.078 49.2648 125.75 49.6475 125.318 49.9323C124.887 50.2171 124.408 50.3595 123.881 50.3595C123.208 50.3595 122.676 50.1733 122.284 49.7994C121.892 49.4255 121.695 48.9545 121.695 48.3849C121.695 47.1613 122.513 46.4238 124.152 46.1669L126.329 45.8471C126.329 44.3411 125.758 43.5901 124.615 43.5901C123.835 43.5901 123.077 43.9003 122.338 44.5193V43.7603C122.6 43.5543 122.957 43.38 123.407 43.2329C123.856 43.0881 124.279 43.0157 124.676 43.0157C125.405 43.0157 125.97 43.2376 126.369 43.6855C126.766 44.1318 126.967 44.7834 126.967 45.6354V50.19L126.33 50.1892ZM124.379 46.7015C123.638 46.8065 123.115 46.9768 122.816 47.2099C122.516 47.4453 122.367 47.8256 122.367 48.3563C122.367 48.7715 122.507 49.1128 122.785 49.3809C123.065 49.6522 123.454 49.7851 123.952 49.7851C124.635 49.7851 125.202 49.5353 125.653 49.0357C126.106 48.5369 126.331 47.894 126.331 47.1048V46.4207L124.379 46.7015ZM135.133 46.8439C135.133 47.1144 135.11 47.3881 135.06 47.6657C135.012 47.9434 134.935 48.2147 134.829 48.4756C134.722 48.7373 134.588 48.9824 134.425 49.2107C134.262 49.4398 134.066 49.6387 133.836 49.809C133.608 49.9816 133.345 50.1144 133.047 50.2131C132.75 50.311 132.417 50.3603 132.048 50.3603C131.532 50.3603 131.075 50.2624 130.681 50.0643C130.286 49.8654 129.956 49.5806 129.691 49.2091C129.426 48.836 129.226 48.3833 129.089 47.8439C128.952 47.3069 128.885 46.6975 128.885 46.0181C128.885 45.2249 128.933 44.5336 129.029 43.9425C129.126 43.3522 129.263 42.8478 129.44 42.4301C129.619 42.0148 129.83 41.6736 130.076 41.407C130.319 41.1437 130.588 40.9377 130.884 40.7929C131.068 40.7022 131.272 40.6226 131.491 40.5574C131.708 40.4898 131.932 40.4317 132.161 40.3776C132.39 40.3259 132.614 40.2789 132.839 40.2423C133.063 40.2026 133.271 40.1676 133.464 40.1349C133.625 40.1039 133.8 40.0602 133.983 40.0061C134.168 39.9496 134.324 39.8804 134.454 39.7936V40.4563C134.351 40.5192 134.217 40.5797 134.05 40.6385C133.88 40.6942 133.691 40.7412 133.478 40.7785C133.275 40.8088 133.063 40.8462 132.838 40.8836C132.613 40.9225 132.394 40.9647 132.181 41.014C131.966 41.061 131.761 41.1167 131.565 41.1779C131.369 41.2408 131.197 41.3108 131.05 41.3927C130.644 41.6306 130.315 42.0292 130.067 42.5948C129.817 43.1573 129.666 43.9067 129.609 44.8407H129.638C129.739 44.645 129.873 44.4556 130.042 44.2758C130.212 44.096 130.406 43.9377 130.623 43.8017C130.843 43.664 131.086 43.5566 131.351 43.4771C131.615 43.3951 131.899 43.3562 132.198 43.3562C132.711 43.3562 133.15 43.4492 133.521 43.6338C133.889 43.8184 134.192 44.0706 134.43 44.3904C134.666 44.7078 134.843 45.0785 134.959 45.501C135.076 45.9218 135.133 46.3697 135.133 46.8439ZM134.426 46.9282C134.426 46.47 134.379 46.0595 134.282 45.6959C134.185 45.3315 134.039 45.0213 133.843 44.7619C133.647 44.505 133.401 44.3069 133.106 44.1668C132.811 44.0292 132.466 43.9592 132.074 43.9592C131.797 43.9592 131.536 44.0037 131.29 44.0928C131.042 44.1812 130.813 44.3029 130.6 44.4524C130.388 44.602 130.199 44.7794 130.034 44.9799C129.869 45.1812 129.727 45.3928 129.611 45.6227C129.611 45.6999 129.609 45.8065 129.604 45.9401C129.599 46.0754 129.597 46.209 129.597 46.3419C129.597 46.797 129.644 47.2313 129.738 47.6474C129.835 48.0635 129.981 48.4295 130.182 48.7445C130.382 49.0619 130.64 49.3165 130.955 49.5058C131.266 49.6944 131.647 49.7883 132.088 49.7883C132.475 49.7883 132.816 49.7111 133.108 49.5591C133.401 49.4072 133.646 49.1996 133.843 48.9362C134.039 48.6753 134.185 48.3714 134.282 48.0237C134.38 47.6753 134.426 47.3109 134.426 46.9282ZM141.791 50.1892V44.3339C141.754 44.3856 141.718 44.4349 141.683 44.4859C141.65 44.5352 141.619 44.575 141.597 44.6004L137.341 50.1892H136.889V43.1859H137.528V48.9848C137.556 48.9354 137.582 48.8861 137.61 48.8423C137.639 48.7962 137.669 48.7556 137.7 48.719L141.921 43.1867H142.434V50.19L141.791 50.1892ZM148.892 50.1892V43.7603H146.823C146.745 44.7993 146.641 45.7238 146.516 46.5336C146.388 47.3443 146.22 48.0253 146.017 48.5838C145.811 49.1399 145.559 49.5623 145.259 49.8519C144.96 50.1407 144.598 50.2863 144.173 50.2863C144.105 50.2863 144.034 50.2815 143.961 50.2696C143.89 50.2584 143.829 50.2441 143.779 50.2322V49.6697C143.814 49.6833 143.876 49.6976 143.958 49.7071C144.04 49.7191 144.107 49.7262 144.16 49.7262C144.469 49.7262 144.738 49.583 144.969 49.2982C145.198 49.0142 145.397 48.5933 145.564 48.0404C145.73 47.4843 145.869 46.8009 145.983 45.9887C146.096 45.174 146.186 44.24 146.257 43.1875H149.528V50.1908H148.892V50.1892ZM151.951 46.7158C151.951 47.6769 152.175 48.4295 152.626 48.9728C153.075 49.5146 153.691 49.7859 154.475 49.7859C155.268 49.7859 156.044 49.4963 156.802 48.9171V49.587C156.068 50.1025 155.248 50.3595 154.345 50.3595C153.432 50.3595 152.692 50.0373 152.13 49.3881C151.568 48.7413 151.286 47.8256 151.286 46.645C151.286 45.6251 151.579 44.7635 152.168 44.0634C152.756 43.3649 153.522 43.0149 154.461 43.0149C155.343 43.0149 156.02 43.3212 156.49 43.9306C156.96 44.5423 157.197 45.3753 157.197 46.435V46.715L151.951 46.7158ZM156.53 46.1414C156.504 45.3339 156.308 44.7054 155.941 44.2599C155.578 43.8136 155.074 43.5901 154.435 43.5901C153.769 43.5901 153.221 43.8096 152.784 44.2504C152.347 44.6895 152.079 45.3196 151.978 46.1414H156.53ZM160.765 43.7603V50.1892H160.129V43.7603H158.004V43.1859H162.888V43.7603H160.765ZM166.648 50.3595C165.613 50.3595 164.797 50.0238 164.194 49.3515C163.592 48.6793 163.291 47.8057 163.291 46.7293C163.291 45.567 163.606 44.6561 164.236 44.0006C164.864 43.3418 165.693 43.0149 166.724 43.0149C167.735 43.0149 168.531 43.3395 169.117 43.9934C169.704 44.645 169.997 45.5479 169.997 46.7015C169.997 47.7914 169.698 48.6737 169.1 49.3483C168.502 50.0238 167.685 50.3595 166.648 50.3595ZM166.695 43.5901C165.861 43.5901 165.195 43.8677 164.699 44.423C164.203 44.9807 163.955 45.754 163.955 46.7413C163.955 47.6586 164.196 48.3937 164.683 48.9513C165.167 49.5074 165.828 49.7851 166.667 49.7851C167.522 49.7851 168.179 49.5114 168.64 48.9657C169.103 48.4167 169.332 47.6578 169.332 46.6872C169.332 45.6887 169.103 44.9226 168.645 44.3904C168.183 43.8558 167.536 43.5901 166.695 43.5901ZM176.772 48.186C176.772 48.4828 176.72 48.7509 176.615 48.9959C176.512 49.2393 176.365 49.451 176.176 49.6284C175.984 49.8058 175.761 49.9434 175.501 50.0421C175.241 50.1399 174.955 50.1892 174.646 50.1892H171.752V43.1859H174.445C174.801 43.1859 175.105 43.2297 175.361 43.3164C175.618 43.4023 175.828 43.5216 175.993 43.6712C176.161 43.8208 176.284 44.0006 176.364 44.2058C176.444 44.4087 176.484 44.6307 176.484 44.8693C176.484 45.0817 176.454 45.2822 176.392 45.4668C176.328 45.6506 176.241 45.8168 176.13 45.9664C176.017 46.1136 175.877 46.2393 175.715 46.3395C175.549 46.4406 175.367 46.5098 175.164 46.5503C175.427 46.5782 175.658 46.6394 175.859 46.7317C176.06 46.8256 176.227 46.9441 176.362 47.0865C176.494 47.2313 176.595 47.3968 176.667 47.5838C176.736 47.7707 176.772 47.972 176.772 48.186ZM175.823 44.9648C175.823 44.8041 175.799 44.6521 175.749 44.505C175.702 44.3602 175.62 44.2321 175.503 44.1223C175.39 44.0125 175.238 43.9266 175.055 43.8605C174.87 43.7929 174.639 43.7603 174.362 43.7603H172.39V46.2974H174.19C174.505 46.2974 174.764 46.26 174.975 46.186C175.185 46.1088 175.352 46.0086 175.478 45.8845C175.6 45.7588 175.691 45.6163 175.742 45.4572C175.796 45.2965 175.823 45.1326 175.823 44.9648ZM176.105 48.2401C176.105 48.0532 176.075 47.8757 176.013 47.7103C175.95 47.5448 175.848 47.4 175.708 47.2759C175.567 47.1526 175.38 47.0539 175.146 46.9815C174.915 46.9091 174.626 46.8717 174.287 46.8717H172.39V49.6148H174.514C174.779 49.6148 175.007 49.5814 175.206 49.5138C175.404 49.4486 175.572 49.3555 175.704 49.2338C175.839 49.1152 175.938 48.9704 176.007 48.7994C176.072 48.6323 176.105 48.4454 176.105 48.2401Z" fill="#202123"/>
<path d="M205.153 0.671603C205.153 0.671603 207.913 0.452288 209.204 1.1541C210.418 1.81398 223.049 18.3382 225.071 21.0025C225.326 21.3356 225.725 21.5555 226.176 21.5722C233.608 21.8403 239.578 23.0175 239.967 25.1034C239.989 25.171 240.001 25.2501 240 25.329C240.001 25.4078 239.989 25.487 239.967 25.5546C239.578 27.6405 233.609 28.8177 226.176 29.0858C225.725 29.1025 225.326 29.3224 225.072 29.6555C223.049 32.3198 210.418 48.844 209.204 49.5039C207.913 50.2057 205.153 49.9864 205.153 49.9864C205.153 49.9864 211.207 37.1345 212.053 34.3711C212.765 32.0025 212.988 29.7216 212.899 28.8005C206.31 28.4496 200.345 27.9232 197.584 27.4407L192.287 33.5816C192.287 33.5816 192.064 33.8447 191.574 33.8886C191.129 33.9325 189.259 33.9325 189.259 33.9325L191.441 26.1248C191.441 26.1248 190.728 25.8617 190.239 25.6862C189.838 25.5546 189.793 25.3729 189.793 25.329C189.793 25.2851 189.838 25.1034 190.239 24.9718C190.728 24.7963 191.441 24.5331 191.441 24.5331L189.259 16.7255C189.259 16.7255 191.129 16.7255 191.574 16.7694C192.064 16.8132 192.287 17.0764 192.287 17.0764L197.584 23.2172C200.345 22.7348 206.31 22.2084 212.899 21.8575C212.988 20.9364 212.765 18.6555 212.053 16.2869C211.207 13.5235 205.153 0.671603 205.153 0.671603Z" fill="#55BB06"/>
</svg>
